<svg width="107" height="61" viewBox="0 0 107 61" fill="none" xmlns="http://www.w3.org/2000/svg">
<g clip-path="url(#clip0_1494_7227)">
<path d="M73.246 19.9002L66.6633 13.2668L60.0807 6.63338L53.498 0L46.9153 6.63338L40.3327 13.2668L33.75 19.9002L40.3327 26.5335L46.9153 33.1669H60.0807L53.498 26.5335L46.9153 19.9002L53.498 13.2668L60.0807 19.9002L66.6633 26.5335L73.246 33.1669H86.4114L79.8287 26.5335L73.246 19.9002Z" fill="white"/>
<path d="M27.1667 26.5334L20.584 33.1668H33.7493L27.1667 26.5334Z" fill="white"/>
<path d="M0.628476 60.4531L0 55.806L0.628476 55.8924C0.93576 57.1101 1.59988 58.2064 2.53431 59.0384C3.4292 59.7756 4.55806 60.1625 5.71341 60.1282C6.78848 60.1608 7.83862 59.7983 8.66807 59.1083C9.04011 58.8157 9.34089 58.4412 9.54741 58.0136C9.75394 57.586 9.86076 57.1164 9.85972 56.6408C9.85972 55.27 8.59869 53.7443 6.07662 52.0637L5.61547 51.7552L5.41958 51.6277C2.97914 50.0129 1.53582 48.8422 1.08963 48.1157C0.825322 47.7041 0.61671 47.2587 0.469316 46.7915C0.33312 46.3452 0.264334 45.8808 0.265266 45.4138C0.247174 44.7857 0.377195 44.1623 0.64465 43.5946C0.912106 43.027 1.30937 42.5314 1.80381 42.1485C2.82678 41.326 4.18712 40.9148 5.88482 40.9148C6.69455 40.928 7.49834 41.0567 8.27221 41.2973C8.78158 41.468 9.30449 41.5946 9.83523 41.6756C9.99093 41.6748 10.1459 41.6541 10.2964 41.6139C10.4677 41.5672 10.6354 41.5081 10.7984 41.4371L11.3166 45.3933L10.7167 45.422C10.326 44.356 9.66126 43.4136 8.7905 42.6914C8.01766 42.0665 7.05522 41.7282 6.06438 41.7332C5.17679 41.7031 4.30796 41.995 3.61577 42.5557C3.30591 42.8057 3.05719 43.1241 2.88878 43.4863C2.72038 43.8485 2.6368 44.2449 2.64449 44.6448C2.64449 45.9525 3.99531 47.4879 6.69694 49.2507L6.79488 49.3042C6.8765 49.3618 7.00709 49.4481 7.20298 49.5592C8.51413 50.3505 9.73135 51.2902 10.831 52.3598C11.2491 52.8085 11.5812 53.3314 11.8104 53.9019C12.0396 54.4573 12.1588 55.0524 12.1614 55.6538C12.198 56.4 12.0622 57.1446 11.7648 57.8289C11.4674 58.5133 11.0164 59.1188 10.4474 59.5977C9.31014 60.5435 7.72535 61.0165 5.69301 61.0165C4.95316 60.9947 4.21982 60.8701 3.51375 60.6463C2.96625 60.4583 2.39952 60.3327 1.82421 60.2721C1.62319 60.2708 1.42245 60.2873 1.2243 60.3215C1.02305 60.3521 0.824011 60.3961 0.628476 60.4531V60.4531Z" fill="white"/>
<path d="M17.3483 55.7773C17.3483 57.2249 17.4476 58.1502 17.6462 58.5532C17.7441 58.7501 17.8983 58.9129 18.0889 59.0206C18.2794 59.1284 18.4977 59.1761 18.7154 59.1577C19.0727 59.1375 19.4179 59.021 19.7153 58.8205C20.1429 58.5426 20.5302 58.2063 20.8661 57.8212L21.2742 58.3681C20.8934 59.0828 20.3809 59.7179 19.7643 60.2393C19.3015 60.6424 18.7147 60.8719 18.1033 60.8891C17.6402 60.9207 17.1775 60.8221 16.7668 60.6043C16.356 60.3864 16.0134 60.0579 15.7771 59.6553C15.2874 58.8329 15.0425 57.5073 15.0425 55.6786V49.8101H13.3652V49.0946C14.1867 48.8959 14.9293 48.4515 15.4955 47.8197C16.1161 47.1029 16.5545 46.2448 16.7729 45.3193H17.3483V48.4037H20.9804V49.8101H17.3483V55.7773Z" fill="white"/>
<path d="M35.1661 54.486C35.187 55.3373 35.0316 56.1836 34.7097 56.971C34.3879 57.7584 33.9068 58.4695 33.297 59.059C32.6773 59.6633 31.944 60.1364 31.1401 60.4507C30.3362 60.765 29.478 60.9141 28.6161 60.8891C27.7621 60.913 26.9123 60.7596 26.1197 60.4384C25.327 60.1172 24.6085 59.6351 24.0086 59.022C23.4003 58.4102 22.9228 57.6793 22.6056 56.8744C22.2883 56.0696 22.138 55.2077 22.164 54.342C22.1427 53.493 22.2989 52.6489 22.6223 51.8647C22.9457 51.0804 23.4291 50.3734 24.0413 49.7896C24.6608 49.188 25.3931 48.717 26.1955 48.4042C26.9978 48.0914 27.8541 47.943 28.714 47.9677C29.5681 47.948 30.4172 48.1032 31.21 48.424C32.0027 48.7448 32.7226 49.2244 33.3259 49.8339C33.9292 50.4434 34.4033 51.17 34.7197 51.9697C35.036 52.7693 35.1879 53.6254 35.1661 54.486ZM32.7665 55.3085C32.7665 53.3208 32.342 51.7142 31.4932 50.4887C31.1449 49.9242 30.6591 49.4589 30.0819 49.1371C29.5047 48.8153 28.8554 48.6478 28.1957 48.6504C27.6759 48.6361 27.1601 48.746 26.6905 48.9711C26.2209 49.1963 25.811 49.5303 25.4941 49.9458C24.7722 50.9501 24.4161 52.1746 24.4861 53.4126C24.4861 55.4031 24.9092 57.0151 25.7553 58.2489C26.6014 59.4826 27.6897 60.0995 29.0201 60.0995C29.5438 60.1152 30.0639 60.0066 30.5382 59.7822C31.0125 59.5579 31.4277 59.2242 31.7503 58.8082C32.4277 57.961 32.7665 56.7958 32.7665 55.3126V55.3085Z" fill="white"/>
<path d="M46.5238 54.2145C46.5238 54.0952 46.5238 53.9143 46.5238 53.6798C46.5238 53.4454 46.5238 53.2686 46.5238 53.1617C46.5238 51.6017 46.3551 50.5338 46.0178 49.9581C45.8374 49.6664 45.5799 49.4311 45.2743 49.2786C44.9687 49.1261 44.627 49.0623 44.2874 49.0945C43.7325 49.1242 43.1889 49.2639 42.6877 49.5057C41.8625 49.8843 41.0671 50.3256 40.3084 50.8258V58.1213C40.3084 58.8245 40.4309 59.2975 40.6839 59.5401C41.095 59.8435 41.6 59.9893 42.1082 59.9513V60.5559H36.3213V59.9513C36.8267 59.9873 37.3285 59.8416 37.7374 59.5401C37.9945 59.2975 38.121 58.8245 38.121 58.1213V51.0479C38.1382 50.867 38.1172 50.6844 38.0596 50.5122C38.0019 50.34 37.9088 50.182 37.7864 50.0485C37.345 49.7466 36.846 49.5407 36.3213 49.444V48.8971L40.1493 47.6633H40.3452V50.028C41.3234 49.394 42.3527 48.8437 43.4222 48.383C44.1226 48.0749 44.8745 47.9033 45.6382 47.8772C46.7932 47.8772 47.6094 48.2308 48.0868 48.9423C48.5643 49.6538 48.8133 50.8916 48.8133 52.6435C48.8133 53.026 48.8133 53.3221 48.8133 53.5236C48.8133 53.7251 48.8133 53.9348 48.7806 54.1199L48.6704 56.5298C48.6704 56.6203 48.6704 56.7518 48.6704 56.9205C48.6419 57.5127 48.6296 57.9239 48.6296 58.1542C48.6296 58.8698 48.7806 59.3386 49.0908 59.5648C49.4009 59.7909 49.9764 59.9061 50.8211 59.9143V60.5189H44.3282V59.9143H44.4833C44.7733 59.9456 45.0663 59.898 45.3318 59.7765C45.5974 59.655 45.8258 59.464 45.9933 59.2234C46.2708 58.7669 46.4381 57.78 46.4952 56.2707L46.5238 54.2145Z" fill="white"/>
<path d="M62.0932 57.7923C61.4094 58.7348 60.5602 59.5432 59.5875 60.1775C58.7878 60.6761 57.867 60.9422 56.9267 60.9465C56.1968 60.9597 55.4736 60.8046 54.8123 60.4932C54.151 60.1817 53.5691 59.7221 53.1109 59.1494C52.1117 57.8016 51.5823 56.1588 51.6052 54.4765C51.6281 52.7943 52.2019 51.1667 53.2374 49.847C53.7526 49.2479 54.393 48.7712 55.1128 48.4512C55.8325 48.1313 56.6136 47.9759 57.4001 47.9964C59.2528 47.9964 60.9016 49.3001 62.3462 51.9074L62.3748 51.9649V52.5283H53.6863C53.6578 52.7422 53.6374 52.9396 53.621 53.1534C53.6047 53.3673 53.621 53.5647 53.621 53.7662C53.621 55.4358 54.0291 56.7847 54.8453 57.8128C55.2243 58.3065 55.7133 58.7033 56.2726 58.9712C56.832 59.2391 57.4461 59.3706 58.0653 59.355C58.7171 59.3496 59.3586 59.1904 59.9384 58.8903C60.6379 58.5148 61.2742 58.0304 61.8239 57.4551L62.0932 57.7923ZM53.8251 51.9197H59.7752C59.7046 51.0606 59.3612 50.2472 58.7958 49.6003C58.5464 49.3316 58.2455 49.1169 57.9111 48.9693C57.5768 48.8216 57.2162 48.744 56.8512 48.7414C56.4862 48.7387 56.1244 48.8109 55.788 48.9536C55.4516 49.0963 55.1475 49.3065 54.8943 49.5715C54.319 50.2328 53.9474 51.0489 53.8251 51.9197V51.9197Z" fill="white"/>
<path d="M73.7108 54.3295C73.7108 54.1692 73.7108 54.0047 73.7108 53.8278C73.7108 53.651 73.7108 53.4166 73.7108 53.0752C73.7108 51.603 73.5462 50.5941 73.217 50.0485C73.0318 49.768 72.7745 49.5434 72.4727 49.3986C72.1709 49.2538 71.8357 49.1941 71.5029 49.226C70.9373 49.2537 70.3826 49.3934 69.8705 49.6372C69.0564 50.0075 68.2719 50.4406 67.524 50.9327V58.113C67.524 58.8245 67.6464 59.3015 67.8953 59.54C68.3037 59.831 68.8007 59.9678 69.2992 59.9266L69.3237 60.5311H63.4878V59.9266C63.9921 59.9638 64.493 59.8179 64.8999 59.5153C65.1488 59.2727 65.2753 58.7998 65.2753 58.0966V43.448C65.2919 43.2652 65.2715 43.081 65.2154 42.9064C65.1593 42.7318 65.0686 42.5705 64.9488 42.4322C64.5056 42.1282 64.0035 41.9222 63.4756 41.8277V41.2807L67.3362 39.9277H67.5607V50.2089C68.54 49.579 69.5676 49.029 70.6337 48.5639C71.3347 48.2525 72.0881 48.078 72.8538 48.0498C74.0005 48.0498 74.8086 48.4035 75.3024 49.1067C75.7962 49.81 76.0124 51.0437 76.0124 52.8079C76.0124 53.1945 76.0124 53.4906 76.0124 53.7045C76.0124 53.9183 76.0124 54.1157 75.988 54.2884L75.8778 56.5832C75.8778 56.649 75.8778 56.7353 75.8778 56.8505C75.8492 57.4673 75.8329 57.8992 75.8329 58.1459C75.8329 58.8779 75.9839 59.355 76.29 59.5853C76.596 59.8156 77.1796 59.943 78.057 59.9595V60.564H71.5315V59.9595H71.6743C71.9609 59.9911 72.2505 59.9435 72.5122 59.8217C72.7739 59.7 72.9978 59.5088 73.1598 59.2686C73.4333 58.8121 73.5965 57.8292 73.6414 56.3282L73.7108 54.3295Z" fill="white"/>
<path d="M81.2934 51.0479C81.3106 50.867 81.2896 50.6845 81.232 50.5123C81.1743 50.3401 81.0812 50.1821 80.9588 50.0486C80.517 49.7474 80.0182 49.5415 79.4937 49.4441V48.8971L83.2931 47.6634H83.5298V58.0967C83.5298 58.8081 83.6522 59.2852 83.8971 59.5237C84.3116 59.8148 84.8137 59.9515 85.3173 59.9103V60.5148H79.4814V59.9103C79.9896 59.9482 80.4946 59.8024 80.9057 59.499C81.1547 59.2564 81.2812 58.7834 81.2812 58.0802L81.2934 51.0479ZM82.2565 41.0547C82.6274 41.0412 82.9913 41.159 83.2849 41.3878C83.4134 41.4819 83.5174 41.6058 83.5885 41.7489C83.6595 41.892 83.6953 42.0503 83.6931 42.2103C83.6971 42.3706 83.662 42.5294 83.5908 42.6728C83.5197 42.8162 83.4146 42.9398 83.2849 43.0328C82.9896 43.2574 82.6263 43.3721 82.2565 43.3576C81.888 43.3677 81.527 43.2517 81.2322 43.0286C81.097 42.9369 80.9869 42.8124 80.912 42.6665C80.8371 42.5206 80.7999 42.358 80.8037 42.1938C80.8011 42.0338 80.8368 41.8754 80.9078 41.7322C80.9789 41.589 81.0831 41.4652 81.2118 41.3713C81.5137 41.1482 81.8826 41.0364 82.2565 41.0547V41.0547Z" fill="white"/>
<path d="M88.3336 43.448C88.3503 43.2643 88.3287 43.079 88.2704 42.9042C88.2121 42.7293 88.1183 42.5685 87.9949 42.4322C87.554 42.1294 87.0549 41.9234 86.5298 41.8277V41.2807L90.3292 39.9277H90.5659V58.1171C90.5659 58.8286 90.6925 59.3056 90.9455 59.5523C91.346 59.8429 91.8376 59.9773 92.3289 59.9307L92.3697 60.5352H86.5176V59.9307C87.2154 59.9307 87.6929 59.7826 87.9419 59.5194C88.1908 59.2563 88.3214 58.8039 88.3214 58.1007L88.3336 43.448Z" fill="white"/>
<path d="M95.9404 43.448C95.9575 43.2646 95.9367 43.0795 95.8791 42.9046C95.8214 42.7298 95.7284 42.5689 95.6057 42.4322C95.1644 42.1302 94.6654 41.9244 94.1406 41.8277V41.2807L97.9441 39.9277H98.1808V58.1171C98.1808 58.8286 98.3073 59.3056 98.5563 59.5523C98.9569 59.8429 99.4484 59.9773 99.9397 59.9307L99.9846 60.5352H94.1406V59.9307C94.6488 59.9687 95.1538 59.8228 95.5649 59.5194C95.8179 59.2768 95.9404 58.8039 95.9404 58.1007V43.448Z" fill="white"/>
<path d="M102.376 58.6683C102.376 58.6683 102.894 57.2742 104.881 57.196C105.242 57.2142 105.592 57.3264 105.897 57.5218C106.202 57.7172 106.451 57.9889 106.62 58.3105C107.273 59.4497 107.028 60.0336 106.31 60.3667C105.76 60.5659 105.172 60.6368 104.591 60.5742C104.01 60.5115 103.451 60.3168 102.955 60.0049C102.955 60.0049 102.127 59.4209 102.376 58.6683Z" fill="white"/>
</g>
<defs>
<clipPath id="clip0_1494_7227">
<rect width="107" height="61" fill="white"/>
</clipPath>
</defs>
</svg>
